<?xml version="1.0" encoding="utf-8"?>
<!-- Generator: Adobe Illustrator 18.0.0, SVG Export Plug-In . SVG Version: 6.00 Build 0)  -->
<!DOCTYPE svg PUBLIC "-//W3C//DTD SVG 1.1//EN" "http://www.w3.org/Graphics/SVG/1.1/DTD/svg11.dtd">
<svg version="1.1" xmlns="http://www.w3.org/2000/svg" xmlns:xlink="http://www.w3.org/1999/xlink" x="0px" y="0px"
	 viewBox="0 0 493 456.317" style="enable-background:new 0 0 493 456.317;" xml:space="preserve">
<style type="text/css">
	.st0{opacity:0;fill:#FFFFFF;}
	.st1{fill:#FFFFFF;}
	.st2{fill:#541300;}
	.st3{fill:#CE3800;}
	.st4{fill:#EE7512;}
	.st5{fill:#FFE5B8;}
	.st6{fill:#00CEFD;}
	.st7{fill:#EBEDED;}
	.st8{fill:#2F3535;}
</style>
<g id="Digital_x5F_bg">
	
		<image style="display:none;overflow:visible;" width="493" height="201" id="bg_x5F_only" xlink:href="BDAADC6C16099516.png"  transform="matrix(0.9999 0 0 0.9999 -0.8154 275.415)">
	</image>
	<g>
		<g>
			<path class="st0" d="M0,456.317c0-22.309,0-44.618,0-66.928c164.333,0,328.667,0,493,0c0,22.309,0,44.618,0,66.928
				C328.667,456.317,164.333,456.317,0,456.317z M18.471,455.211c6.236,0,11.887,0.076,17.533-0.044
				c1.806-0.039,3.633-0.478,5.396-0.939c8.972-2.344,15.021-9.35,15.583-17.941c0.684-10.455-3.335-17.869-12.012-21.389
				c-8.584-3.483-17.537-2.353-26.501-2.081C18.471,427.126,18.471,440.875,18.471,455.211z M190.516,417.407
				c-7.075-5.896-14.559-6.472-22.291-5.312c-10.338,1.55-17.112,9.466-17.835,20.358c-0.692,10.413,5.556,19.88,15.16,22.647
				c7.643,2.202,15.176,1.265,22.469-1.602c1.176-0.462,2.785-1.843,2.823-2.85c0.251-6.747,0.13-13.508,0.13-20.422
				c-5.814,0-11.037,0-16.208,0c-0.857,7.492-0.857,7.492,8.071,9.259c-0.988,2.338-1.299,5.448-2.927,6.477
				c-4.748,3-12.895,1.366-16.653-2.583c-3.784-3.975-4.54-11.135-1.723-16.319c2.747-5.056,8.85-7.719,15.002-6.242
				c2.51,0.603,4.873,1.821,7.413,2.802C185.924,421.749,187.958,419.826,190.516,417.407z M398.031,455.271
				c-5.975-13.79-11.548-26.928-17.463-39.91c-0.637-1.399-3.277-2.633-4.959-2.598c-1.666,0.035-4.15,1.385-4.808,2.827
				c-5.317,11.657-10.297,23.467-15.349,35.244c-0.561,1.308-0.927,2.701-1.683,4.94c4.24-1.813,9.547,2.487,11.255-3.722
				c1.381-5.022,4.214-6.597,9.036-5.817c1.461,0.236,3.019,0.219,4.485,0.002c4.081-0.605,6.7,0.788,7.542,4.997
				c0.687,3.433,2.863,4.522,6.195,4.074C393.912,455.09,395.596,455.271,398.031,455.271z M305.76,421.308
				c4.342-0.192,7.928-0.35,11.556-0.51c0-2.88,0-5.27,0-7.821c-11.223,0-22.071,0-33.285,0c0.144,2.841,0.266,5.233,0.413,8.134
				c4.091,0,7.665,0,11.774,0c0,11.578,0,22.624,0,33.762c3.417,0,6.275,0,9.541,0C305.76,443.57,305.76,432.66,305.76,421.308z
				 M438.398,412.887c0,14.323,0,28.073,0,42.101c8.884,0,17.441,0,26.195,0c0-2.856,0-5.434,0-8.602c-5.617,0-11.02,0-16.931,0
				c0-10.034-0.237-19.492,0.108-28.929c0.154-4.217-1.455-5.348-5.17-4.911C441.309,412.697,440.006,412.759,438.398,412.887z
				 M108.711,455.005c0-13.416,0.065-26.34-0.12-39.259c-0.015-1.067-1.563-2.743-2.678-3.023c-1.978-0.497-4.17-0.14-6.469-0.14
				c0,14.483,0,28.321,0,42.422C102.522,455.005,105.276,455.005,108.711,455.005z M243.708,455.153c0-14.305,0-28.137,0-42.261
				c-3.025,0-5.738,0-8.469,0c0,14.293,0,28.242,0,42.261C238.232,455.153,240.704,455.153,243.708,455.153z"/>
			<path class="st1" d="M18.471,455.211c0-14.337,0-28.085,0-42.394c8.964-0.273,17.917-1.403,26.501,2.081
				c8.676,3.521,12.696,10.934,12.012,21.389c-0.562,8.591-6.612,15.596-15.583,17.941c-1.764,0.461-3.59,0.9-5.396,0.939
				C30.358,455.287,24.708,455.211,18.471,455.211z M27.97,446.26c7.248-0.018,14.283,0.775,18.195-6.292
				c2.477-4.474,2.6-9.51-0.799-13.574c-4.531-5.417-10.802-5.485-17.395-4.551C27.97,430.045,27.97,437.92,27.97,446.26z"/>
			<path class="st1" d="M190.516,417.407c-2.558,2.418-4.591,4.341-6.57,6.213c-2.54-0.981-4.903-2.2-7.413-2.802
				c-6.152-1.477-12.255,1.186-15.002,6.242c-2.816,5.184-2.06,12.344,1.723,16.319c3.758,3.948,11.906,5.583,16.653,2.583
				c1.628-1.029,1.939-4.139,2.927-6.477c-8.928-1.767-8.928-1.767-8.071-9.259c5.171,0,10.394,0,16.208,0
				c0,6.914,0.12,13.675-0.13,20.422c-0.037,1.007-1.647,2.388-2.823,2.85c-7.293,2.867-14.826,3.804-22.469,1.602
				c-9.604-2.767-15.851-12.234-15.16-22.647c0.723-10.892,7.498-18.808,17.835-20.358
				C175.957,410.935,183.441,411.511,190.516,417.407z"/>
			<path class="st1" d="M398.031,455.271c-2.436,0-4.119-0.181-5.749,0.038c-3.332,0.448-5.508-0.641-6.195-4.074
				c-0.842-4.21-3.461-5.603-7.542-4.997c-1.466,0.217-3.025,0.235-4.485-0.002c-4.822-0.78-7.655,0.795-9.036,5.817
				c-1.707,6.208-7.014,1.909-11.255,3.722c0.756-2.24,1.122-3.632,1.683-4.94c5.052-11.777,10.033-23.587,15.349-35.244
				c0.658-1.442,3.142-2.792,4.808-2.827c1.682-0.035,4.321,1.199,4.959,2.598C386.484,428.343,392.057,441.481,398.031,455.271z
				 M370.712,437.894c3.426,0,6.382,0,9.948,0c-1.697-4.362-3.158-8.119-5.04-12.958
				C373.712,429.975,372.233,433.879,370.712,437.894z"/>
			<path class="st1" d="M305.76,421.308c0,11.352,0,22.262,0,33.565c-3.266,0-6.124,0-9.541,0c0-11.138,0-22.185,0-33.762
				c-4.11,0-7.683,0-11.774,0c-0.147-2.901-0.269-5.293-0.413-8.134c11.213,0,22.061,0,33.285,0c0,2.551,0,4.941,0,7.821
				C313.688,420.958,310.102,421.116,305.76,421.308z"/>
			<path class="st1" d="M438.398,412.887c1.609-0.128,2.911-0.19,4.203-0.342c3.714-0.436,5.324,0.694,5.17,4.911
				c-0.345,9.437-0.108,18.896-0.108,28.929c5.91,0,11.313,0,16.931,0c0,3.168,0,5.746,0,8.602c-8.755,0-17.311,0-26.195,0
				C438.398,440.96,438.398,427.21,438.398,412.887z"/>
			<path class="st1" d="M108.711,455.005c-3.435,0-6.189,0-9.267,0c0-14.102,0-27.94,0-42.422c2.299,0,4.492-0.357,6.469,0.14
				c1.115,0.28,2.663,1.957,2.678,3.023C108.776,428.666,108.711,441.589,108.711,455.005z"/>
			<path class="st1" d="M243.708,455.153c-3.005,0-5.476,0-8.469,0c0-14.019,0-27.968,0-42.261c2.731,0,5.444,0,8.469,0
				C243.708,427.016,243.708,440.848,243.708,455.153z"/>
		</g>
	</g>
</g>
<g id="Logo_x5F_top">
	<g id="Tubes">
		<g>
			<path class="st2" d="M101,354.042c0,18.998-23.101,34.396-50.5,34.396l0,0c-27.398,0-50.5-15.397-50.5-34.396V34.391
				C0,15.4,23.102,0,50.5,0l0,0C77.899,0,101,15.4,101,34.391V354.042z"/>
		</g>
		<g>
			<path class="st3" d="M197,354.042c0,18.998-20.601,34.396-48,34.396l0,0c-27.398,0-48-15.397-48-34.396V34.391
				C101,15.4,121.602,0,149,0l0,0c27.399,0,48,15.4,48,34.391V354.042z"/>
		</g>
		<g>
			<path class="st4" d="M298,354.042c0,18.998-23.103,34.396-50.5,34.396l0,0c-27.399,0-50.5-15.397-50.5-34.396V34.391
				C197,15.4,220.101,0,247.5,0l0,0C274.897,0,298,15.4,298,34.391V354.042z"/>
		</g>
		<g>
			<path class="st5" d="M398,354.419c0,18.792-22.602,34.019-50,34.019l0,0c-27.401,0-50-15.227-50-34.019V38.203
				c0-18.789,22.599-34.023,50-34.023l0,0c27.398,0,50,15.235,50,34.023V354.419z"/>
		</g>
		<g>
			<path class="st6" d="M493,354.419c0,18.792-20.102,34.019-47.5,34.019l0,0c-27.398,0-47.5-15.227-47.5-34.019V38.203
				c0-18.789,20.102-34.023,47.5-34.023l0,0c27.398,0,47.5,15.235,47.5,34.023V354.419z"/>
		</g>
	</g>
	<g id="Type_x5F_outlines">
		<g>
			<path class="st7" d="M18.243,355.225v-105.73H41.54v84.226h43.159v21.504H18.243z"/>
		</g>
		<g>
			<path class="st7" d="M161.448,355.225v-9.109c-4.608,7.27-12.32,10.902-23.138,10.902c-7.212,0-13.272-1.891-18.182-5.676
				c-5.209-4.182-7.812-9.756-7.812-16.725c0-10.951,5.874-18.369,17.622-22.252c6.87-2.19,17.372-3.285,31.51-3.285
				c0-3.883-1.396-7.02-4.182-9.408c-2.788-2.391-6.174-3.584-10.155-3.584c-6.97,0-13.044,2.889-18.219,8.66l-11.947-12.244
				c8.263-7.766,18.915-11.648,31.959-11.648c12.444,0,21.255,3.236,26.433,9.707c4.48,5.674,6.72,14.934,6.72,27.775v36.887
				H161.448z M161.448,323.417h-5.525c-14.736,0-22.102,3.486-22.102,10.453c0,2.49,1.143,4.48,3.435,5.975
				c1.99,1.295,4.38,1.941,7.168,1.941c4.678,0,8.685-1.195,12.021-3.584c3.334-2.391,5.003-5.725,5.003-10.006V323.417z"/>
		</g>
		<g>
			<path class="st7" d="M207.753,355.225V242.327h22.4v48.086h0.299c4.566-6.369,12.213-9.557,22.937-9.557
				c9.93,0,18.021,3.934,24.277,11.797c5.857,7.369,8.787,16.33,8.787,26.881c0,11.051-3.295,20.062-9.881,27.031
				c-6.59,6.969-15.224,10.453-25.901,10.453c-4.692,0-9.233-1.246-13.624-3.734c-3.895-2.09-6.79-4.629-8.685-7.615v9.557H207.753z
				 M228.361,318.936c0,5.477,1.591,9.908,4.779,13.291c3.185,3.387,7.565,5.078,13.142,5.078c5.575,0,9.955-1.691,13.142-5.078
				c3.185-3.383,4.778-7.815,4.778-13.291c0-5.475-1.594-9.904-4.778-13.291c-3.188-3.383-7.567-5.076-13.142-5.076
				c-5.577,0-9.956,1.693-13.142,5.076C229.953,309.032,228.361,313.462,228.361,318.936z"/>
		</g>
		<g>
			<path class="st8" d="M349.057,355.225v-80.642l-21.205,18.667l-12.694-14.635l34.497-29.121h20.907v105.73H349.057z"/>
		</g>
		<g>
			<path class="st8" d="M422.102,355.225l24.79-37.781c-2.788,0.697-5.227,1.045-7.317,1.045c-9.759,0-17.723-3.309-23.895-9.932
				c-6.174-6.619-9.259-14.807-9.259-24.566c0-10.752,3.825-19.512,11.479-26.283c7.353-6.669,16.643-10.005,27.872-10.005
				c11.229,0,20.593,3.36,28.097,10.08c7.502,6.72,11.254,15.456,11.254,26.208c0,6.771-1.241,13.193-3.724,19.266
				c-1.592,3.785-4.571,9.06-8.939,15.83l-23.094,36.139H422.102z M428.674,284.888c0,4.779,1.598,8.736,4.8,11.873
				c3.199,3.135,7.299,4.703,12.299,4.703c4.998,0,9.098-1.568,12.3-4.703c3.199-3.137,4.8-7.094,4.8-11.873
				c0-4.778-1.601-8.736-4.8-11.872c-3.202-3.136-7.302-4.704-12.3-4.704c-5,0-9.1,1.568-12.299,4.704
				C430.271,276.151,428.674,280.109,428.674,284.888z"/>
		</g>
	</g>
</g>
</svg>
